<?xml version="1.0" standalone="no"?>
<!DOCTYPE svg PUBLIC "-//W3C//DTD SVG 20010904//EN"
 "http://www.w3.org/TR/2001/REC-SVG-20010904/DTD/svg10.dtd">
<svg version="1.0" xmlns="http://www.w3.org/2000/svg"
 width="512.000000pt" height="512.000000pt" viewBox="0 0 512.000000 512.000000"
 preserveAspectRatio="xMidYMid meet">
<metadata>
Created by potrace 1.11, written by Peter Selinger 2001-2013
</metadata>
<g transform="translate(0.000000,512.000000) scale(0.100000,-0.100000)"
fill="#000000" stroke="none">
<path d="M578 4859 c-15 -9 -19 -149 -4 -149 7 0 7 -3 1 -8 -13 -9 -15 -52 -3
-52 5 0 6 -5 2 -12 -12 -19 -11 -168 0 -168 7 0 8 -3 1 -8 -13 -9 -15 -52 -3
-52 5 0 6 -5 2 -12 -12 -19 -11 -168 0 -168 7 0 8 -3 1 -8 -13 -9 -15 -52 -3
-52 5 0 6 -6 2 -12 -11 -18 -12 -340 -2 -355 5 -6 5 -14 0 -17 -10 -6 -9 -103
1 -112 3 -3 17 -7 32 -8 20 -3 25 0 20 12 -5 13 -3 13 11 2 13 -12 17 -11 25
1 5 8 9 10 9 4 0 -5 4 -4 9 3 7 11 9 10 14 -3 4 -9 3 -14 -1 -11 -4 2 -16 -2
-27 -10 -10 -8 -14 -14 -9 -14 6 0 15 5 22 12 9 9 12 9 12 0 0 -10 3 -10 14 0
8 7 12 16 10 19 -2 3 4 6 12 6 8 0 13 -5 11 -11 -5 -12 64 -13 111 -2 12 3 20
1 17 -4 -3 -5 0 -12 6 -16 8 -5 9 -3 4 6 -6 10 -4 12 10 6 14 -5 16 -4 7 7 -9
10 -8 14 3 14 8 0 15 -5 15 -11 0 -6 11 -11 24 -11 13 0 22 3 19 8 -2 4 -1 7
4 8 4 0 18 2 31 5 12 2 22 0 22 -5 0 -6 -9 -8 -21 -6 -17 4 -19 2 -9 -10 17
-20 27 -19 35 5 6 18 8 19 22 5 14 -14 17 -14 30 2 14 17 14 17 9 0 -3 -11 -2
-16 4 -12 6 3 10 1 10 -5 0 -7 5 -6 14 2 8 7 12 16 9 21 -10 17 10 5 27 -15
l18 -23 22 25 c12 14 19 20 16 14 -3 -7 1 -15 10 -18 11 -4 15 -2 11 7 -3 8 1
14 9 14 9 0 13 -6 10 -14 -3 -8 -1 -11 4 -8 6 3 10 1 10 -5 0 -7 5 -6 14 2 8
7 13 15 11 18 -2 3 10 6 26 6 16 1 29 -2 29 -7 0 -4 -9 -6 -21 -4 -17 4 -19 2
-9 -10 17 -20 27 -19 35 5 6 18 8 19 22 5 14 -14 17 -14 30 2 14 17 14 17 9 0
-3 -11 -2 -16 4 -12 6 3 10 1 10 -5 0 -7 5 -6 14 2 8 7 12 16 9 21 -10 17 10
5 27 -15 l18 -23 22 25 c12 14 19 20 16 14 -3 -7 1 -15 10 -18 11 -4 15 -2 11
7 -3 8 1 14 9 14 9 0 13 -6 10 -14 -3 -8 -2 -12 3 -8 5 3 12 -1 14 -7 4 -10 6
-10 6 0 1 6 6 12 12 12 5 0 8 -4 4 -10 -3 -5 7 -3 22 5 25 13 29 13 35 -3 6
-16 7 -16 7 1 1 10 6 15 11 12 6 -4 23 -8 38 -11 19 -3 23 -2 12 5 -8 5 -17 8
-21 5 -4 -2 -10 0 -13 5 -7 10 6 9 42 -3 13 -4 20 -12 16 -19 -5 -8 -2 -8 7 1
7 6 17 12 22 12 4 0 5 -6 2 -12 -4 -7 0 -4 9 6 8 10 13 24 10 30 -3 6 7 -2 22
-19 15 -16 30 -30 33 -30 3 0 5 -15 3 -33 -2 -22 1 -31 8 -27 5 3 10 4 10 1 0
-3 -12 -13 -27 -21 -16 -9 -20 -14 -11 -11 28 8 48 -38 22 -48 -12 -4 -12 -2
-4 14 6 11 7 20 2 20 -15 0 -20 -35 -8 -52 6 -8 10 -39 10 -69 -1 -30 3 -57 8
-60 5 -3 2 -9 -7 -12 -10 -5 -14 -3 -9 5 4 7 3 8 -5 4 -9 -6 -9 -11 0 -22 15
-18 18 -102 5 -129 -12 -24 -15 -104 -5 -111 5 -2 6 4 4 14 -2 11 3 19 10 19
8 0 11 -5 7 -11 -14 -22 -11 -38 6 -31 9 3 4 -6 -13 -20 -16 -15 -24 -24 -17
-20 6 3 12 3 13 -2 0 -4 2 -18 3 -30 2 -15 -3 -23 -13 -23 -14 0 -14 -2 -1 -9
8 -6 18 -7 24 -4 5 3 6 1 2 -6 -4 -6 -12 -9 -17 -6 -11 7 -11 6 -13 -67 -1
-38 2 -54 9 -48 7 5 10 -9 10 -43 0 -29 -4 -55 -10 -59 -11 -8 -14 -127 -4
-134 5 -2 6 4 4 14 -2 11 3 19 10 19 8 0 11 -5 7 -11 -14 -22 -11 -38 6 -31 9
3 4 -6 -13 -20 -16 -15 -24 -24 -17 -20 6 3 12 3 13 -2 0 -4 2 -18 3 -30 2
-15 -3 -23 -13 -23 -14 0 -14 -2 -1 -9 8 -6 18 -7 24 -4 5 3 6 1 2 -6 -4 -6
-12 -9 -17 -6 -11 7 -11 6 -13 -67 -1 -38 2 -54 9 -48 7 5 10 -9 10 -43 0 -29
-4 -55 -10 -59 -11 -8 -14 -127 -4 -134 5 -2 6 4 4 14 -2 11 3 19 10 19 8 0
11 -5 7 -11 -14 -22 -11 -38 6 -31 9 3 4 -6 -13 -20 -16 -15 -24 -24 -17 -20
6 3 12 3 13 -2 0 -4 2 -18 3 -31 2 -14 -3 -22 -13 -22 -14 0 -14 -2 -1 -9 8
-6 18 -7 24 -4 5 3 6 1 2 -6 -4 -6 -12 -9 -17 -6 -10 7 -11 4 -13 -57 -1 -24
3 -52 9 -63 6 -11 10 -42 9 -70 0 -27 3 -53 9 -56 5 -3 1 -9 -8 -12 -10 -5
-14 -3 -9 5 4 7 3 8 -4 4 -9 -5 -9 -13 1 -29 7 -12 12 -44 11 -72 0 -27 3 -53
9 -56 5 -3 1 -9 -8 -12 -10 -5 -14 -3 -9 5 4 7 3 8 -4 4 -9 -5 -9 -13 1 -29 7
-12 12 -44 11 -72 0 -27 3 -53 9 -56 5 -3 1 -9 -8 -12 -10 -5 -14 -3 -9 5 4 7
3 8 -5 4 -9 -6 -9 -11 0 -22 11 -14 19 -144 9 -144 -3 0 -12 6 -20 13 -12 10
-12 9 -1 -5 7 -9 9 -23 5 -30 -6 -10 -5 -10 7 -1 12 10 14 3 14 -40 0 -29 -4
-55 -10 -59 -11 -8 -14 -127 -4 -134 5 -2 6 4 4 14 -2 11 3 19 10 19 8 0 11
-5 7 -11 -14 -22 -11 -38 6 -31 9 3 4 -6 -13 -20 -16 -15 -24 -24 -17 -20 6 3
12 3 13 -2 0 -4 2 -18 3 -31 2 -14 -3 -22 -13 -22 -14 0 -14 -2 -1 -9 8 -6 18
-7 24 -4 5 3 6 1 2 -6 -4 -6 -12 -9 -17 -6 -11 7 -11 6 -13 -67 -1 -38 2 -54
9 -48 7 5 10 -9 10 -43 0 -29 -4 -55 -10 -59 -5 -4 -10 -20 -10 -37 -1 -20 3
-27 10 -21 7 5 10 -9 10 -43 0 -29 -4 -55 -10 -59 -5 -4 -10 -31 -10 -60 0
-29 -3 -58 -7 -64 -4 -6 -1 -11 6 -11 8 0 12 10 11 27 -1 16 3 27 10 27 13 0
14 -21 2 -33 -4 -4 -2 -13 3 -19 7 -8 4 -18 -10 -30 -11 -10 -20 -23 -20 -29
0 -6 5 -4 10 4 8 13 10 12 10 -3 0 -10 4 -16 9 -13 11 7 8 -21 -4 -31 -4 -4
-5 -3 -1 4 11 19 -11 24 -25 6 -8 -10 -9 -14 -2 -10 6 4 15 2 18 -4 4 -5 13
-8 21 -5 8 3 14 0 14 -6 0 -7 4 -7 13 0 6 5 21 6 32 2 11 -4 29 -3 40 3 10 5
20 6 22 1 2 -7 615 -11 633 -4 3 1 10 1 15 0 32 -7 56 -6 61 2 3 4 10 6 15 2
17 -10 59 -12 65 -3 3 5 13 6 22 1 15 -7 38 -8 52 -2 18 7 60 4 60 -5 0 -5 5
-3 10 5 8 12 10 12 10 1 0 -10 3 -11 13 -2 8 6 17 8 20 4 6 -5 242 -8 257 -3
3 1 20 2 38 2 37 1 38 1 15 19 -11 10 -14 10 -9 2 4 -7 2 -13 -3 -13 -12 0 -9
35 4 47 4 5 5 2 1 -4 -4 -7 -2 -13 3 -13 6 0 11 9 11 21 0 11 -4 18 -8 15 -5
-3 -9 0 -10 7 -1 7 -3 27 -5 45 -3 18 -1 34 3 37 4 3 6 -8 5 -24 -2 -22 1 -28
12 -24 8 3 11 9 6 12 -13 10 -14 31 0 31 6 1 1 8 -13 16 -24 15 -24 15 -2 10
17 -3 21 -1 14 7 -14 18 -21 57 -10 57 5 0 6 5 3 10 -4 6 -11 7 -17 4 -7 -5
-8 -2 -2 7 11 19 13 79 1 86 -4 3 1 12 12 20 20 14 20 40 0 27 -6 -3 -7 4 -3
20 4 16 1 33 -7 43 -13 15 -12 15 11 3 l25 -13 -23 25 -23 25 23 17 c13 9 17
14 10 11 -6 -3 -12 0 -12 7 0 10 -3 9 -11 -2 -9 -13 -10 -13 -6 0 2 8 13 14
25 14 12 -1 19 3 16 7 -3 5 -10 7 -15 4 -5 -4 -9 0 -9 9 0 8 -6 17 -12 20 -7
3 -3 3 10 0 14 -3 22 -1 22 7 0 7 -3 9 -7 6 -9 -9 -34 13 -27 24 3 5 11 9 17
9 7 0 6 -4 -3 -10 -9 -6 -10 -10 -3 -10 19 0 26 20 9 26 -8 3 -13 11 -10 17 2
7 6 27 8 45 3 29 2 31 -13 20 -14 -12 -15 -11 -1 6 15 20 15 23 -1 43 -7 7 -6
14 1 18 6 3 8 10 5 15 -3 5 -1 11 4 14 5 3 7 -8 6 -24 -1 -16 1 -28 5 -25 13
8 5 53 -13 73 -13 14 -14 20 -5 18 7 0 13 3 13 9 0 5 -3 9 -8 7 -4 -1 -5 9 -1
23 4 15 1 32 -7 42 -13 15 -12 15 11 3 l25 -13 -23 25 -23 25 23 17 c13 9 17
14 11 11 -7 -3 -13 0 -13 7 0 10 -3 9 -11 -2 -9 -13 -10 -13 -6 0 2 8 13 14
25 14 12 -1 19 3 16 7 -3 5 -10 7 -15 4 -5 -4 -9 0 -9 9 0 8 -6 17 -12 20 -7
3 -3 3 10 0 13 -3 22 -1 22 6 0 6 -4 9 -9 6 -11 -7 -33 18 -24 27 3 4 11 7 17
7 6 0 4 -5 -4 -10 -9 -6 -10 -10 -3 -10 19 0 26 20 9 26 -8 3 -13 11 -10 17 2
7 6 27 8 45 3 29 2 31 -13 20 -14 -11 -14 -11 -5 2 12 17 12 30 1 47 -4 6 -3
14 3 18 6 4 8 10 5 15 -3 5 -1 11 4 14 5 3 7 -8 6 -24 -1 -16 1 -28 5 -25 13
8 5 53 -13 73 -13 14 -14 20 -5 18 7 0 13 3 13 9 0 5 -3 9 -8 7 -4 -1 -5 9 -1
23 4 15 1 32 -7 42 -13 15 -12 15 11 3 l25 -13 -23 25 -23 25 23 16 23 16 -22
-4 c-13 -2 -23 0 -23 6 0 5 6 9 14 9 9 0 12 7 9 20 -3 12 0 20 8 20 8 0 5 6
-7 16 -15 12 -15 14 -2 11 18 -6 19 24 0 31 -7 2 -7 13 -1 35 11 39 11 40 -1
32 -6 -3 -7 1 -4 9 3 9 11 16 18 16 6 0 4 5 -4 10 -13 9 -13 10 0 10 9 0 11 3
5 8 -15 11 -17 32 -2 32 6 1 1 7 -13 15 -14 8 -19 14 -11 15 9 0 12 9 9 30 -3
17 -1 30 4 30 5 0 6 5 3 10 -4 6 -12 7 -18 3 -9 -5 -9 -3 -1 8 11 16 13 68 1
85 -4 7 0 14 8 18 8 3 15 10 15 16 0 6 -4 8 -10 5 -6 -3 -7 1 -4 9 3 9 11 16
18 16 6 0 4 5 -4 10 -13 9 -13 10 0 10 9 0 11 3 5 8 -15 11 -17 32 -2 32 6 1
1 7 -13 15 -14 8 -19 14 -11 15 9 0 12 9 9 30 -3 17 -1 30 4 30 5 0 6 5 3 10
-4 6 -12 7 -18 3 -9 -5 -9 -3 -1 8 11 16 13 68 1 85 -4 7 0 14 8 18 8 3 15 10
15 16 0 6 -4 8 -10 5 -6 -3 -7 1 -4 9 3 9 11 16 18 16 6 0 4 5 -4 10 -13 9
-13 10 0 10 9 0 11 3 5 8 -15 11 -17 32 -2 32 6 1 1 7 -13 15 -14 8 -19 14
-11 15 9 0 12 9 9 30 -3 17 -1 30 4 30 5 0 6 5 3 10 -4 6 -12 7 -18 3 -9 -5
-9 -3 -1 8 11 16 13 68 1 85 -4 7 0 14 8 18 8 3 15 10 15 16 0 6 -4 8 -10 5
-6 -3 -7 1 -4 9 3 9 11 16 18 16 6 0 4 5 -4 10 -13 9 -13 10 0 10 9 0 11 3 5
8 -15 11 -17 32 -3 32 7 1 2 7 -12 15 -14 8 -19 14 -11 15 9 0 12 9 9 30 -3
16 -1 30 4 30 5 0 6 5 3 10 -4 6 -11 7 -17 4 -7 -5 -8 -2 -2 7 11 19 13 79 1
86 -4 3 1 12 12 20 20 14 20 40 0 27 -6 -3 -7 4 -3 20 4 16 1 33 -7 43 -13 15
-12 15 11 3 l25 -13 -23 25 -23 25 23 17 c13 9 17 14 11 11 -7 -3 -13 0 -13 7
0 10 -3 9 -11 -2 -9 -13 -10 -13 -6 0 2 8 13 14 25 14 12 -1 19 3 16 7 -3 5
-10 7 -15 4 -5 -4 -9 0 -9 9 0 8 -6 17 -12 20 -7 3 -3 3 10 0 14 -3 22 -1 22
7 0 7 -3 9 -7 6 -9 -9 -34 13 -27 24 3 5 11 9 17 9 7 0 6 -4 -3 -10 -9 -6 -10
-10 -3 -10 18 0 26 19 11 25 -8 3 -12 22 -11 53 2 72 2 74 15 66 6 -4 8 -3 4
4 -3 6 -15 9 -26 7 -12 -2 -18 0 -15 6 4 5 13 9 20 9 9 0 12 6 8 17 -4 10 -2
14 5 9 6 -3 14 -1 18 5 4 7 3 9 -3 6 -6 -4 -16 0 -23 8 -11 13 -10 14 4 9 11
-4 16 -2 14 6 -3 14 29 23 37 10 3 -5 -4 -7 -15 -5 -11 2 -18 0 -15 -5 6 -9
31 -8 41 3 4 3 14 3 23 -2 9 -5 24 -7 34 -6 9 2 17 -2 17 -8 0 -8 3 -8 8 -2
11 15 124 17 116 2 -4 -7 -3 -8 2 -4 5 5 9 14 9 20 0 8 19 12 50 12 28 0 56 4
64 9 9 6 12 5 7 -2 -3 -6 1 -15 11 -20 13 -8 21 -6 31 6 13 16 13 16 8 -1 -3
-11 -2 -16 4 -12 6 3 10 1 10 -5 0 -7 5 -6 14 2 8 7 12 16 10 19 -2 3 4 6 12
6 8 0 13 -6 10 -12 -4 -12 59 -12 112 -1 12 3 20 1 17 -4 -3 -5 0 -12 6 -16 8
-5 9 -3 4 6 -6 10 -4 12 10 6 14 -5 16 -4 7 7 -9 10 -8 14 3 14 8 0 15 -5 15
-11 0 -6 11 -11 24 -11 13 0 22 3 20 6 -2 4 3 10 12 13 11 4 15 2 11 -8 -4
-10 3 -13 26 -11 18 2 38 -2 46 -8 12 -10 12 -9 3 10 -16 30 -15 41 2 18 17
-23 56 -30 56 -10 0 8 5 15 11 15 5 0 8 -4 4 -9 -3 -5 -1 -12 5 -16 5 -3 10 1
10 10 0 9 4 14 9 11 5 -4 11 -1 13 6 3 7 7 5 11 -6 4 -9 3 -15 -2 -11 -5 3
-13 0 -17 -6 -4 -8 -3 -9 4 -5 7 4 12 2 12 -4 0 -7 5 -6 14 2 8 7 12 16 10 19
-2 3 4 6 12 6 8 0 13 -6 10 -12 -3 -9 9 -11 46 -8 33 3 48 1 43 -6 -4 -7 0 -8
10 -5 14 6 14 8 -2 21 -17 13 -16 13 3 4 12 -6 24 -7 28 -3 4 3 4 -2 1 -13 -6
-16 -5 -17 4 -5 10 13 12 13 21 0 5 -8 10 -10 10 -4 0 5 -5 15 -10 20 -7 7 -6
11 5 11 8 0 15 -5 15 -11 0 -6 14 -11 30 -12 17 -1 30 3 30 8 0 5 -5 6 -12 2
-7 -4 -8 -3 -4 5 4 6 11 9 16 6 4 -3 10 0 12 7 3 7 7 5 11 -6 4 -9 3 -15 -1
-12 -5 3 -9 -1 -9 -9 0 -11 4 -12 14 -4 7 6 13 18 13 25 0 8 4 14 9 14 5 0 7
-10 4 -22 -3 -13 -3 -20 1 -17 13 12 17 110 4 103 -7 -5 -8 -2 -3 7 14 21 15
60 3 53 -7 -5 -8 -2 -3 5 13 21 14 101 1 94 -6 -3 -5 0 2 8 14 16 16 33 2 24
-5 -3 -10 -1 -10 4 0 6 3 11 8 11 4 0 7 45 7 99 0 63 -4 97 -10 94 -5 -3 -4 0
3 8 14 16 16 33 2 24 -5 -3 -10 -1 -10 4 0 6 3 11 8 11 4 0 7 45 7 99 0 63 -4
97 -10 94 -5 -3 -4 0 3 8 14 16 16 33 2 24 -5 -3 -10 -1 -10 4 0 6 3 11 8 11
4 0 6 84 5 187 -1 231 -1 223 -13 223 -5 0 -6 -8 -3 -17 6 -15 5 -16 -9 -3 -9
8 -13 20 -10 25 2 6 -1 5 -8 -2 -8 -7 -21 -9 -35 -3 -12 4 -28 5 -35 0 -7 -4
-19 -6 -27 -3 -9 4 -11 0 -7 -13 5 -17 4 -17 -8 1 -13 19 -38 32 -38 19 0 -4
8 -13 18 -21 15 -13 14 -13 -8 0 -14 8 -37 13 -53 11 -15 -1 -27 1 -27 6 0 5
-7 7 -16 3 -15 -6 -15 -8 2 -20 10 -7 13 -13 6 -13 -6 0 -18 10 -26 22 -9 12
-16 17 -16 11 0 -12 -24 -12 -36 0 -4 3 -16 1 -27 -4 -11 -6 -22 -7 -26 -3 -7
11 -31 16 -31 8 0 -4 8 -13 18 -21 15 -13 14 -13 -8 0 -14 8 -37 13 -53 11
-15 -1 -27 1 -27 6 0 5 -7 7 -16 3 -15 -6 -15 -8 2 -20 10 -7 13 -13 6 -13 -6
0 -18 10 -26 22 -9 12 -16 17 -16 11 0 -12 -24 -12 -36 0 -4 3 -16 1 -27 -4
-11 -6 -22 -7 -26 -3 -7 11 -31 16 -31 8 0 -4 8 -13 18 -21 11 -10 8 -10 -10
1 -16 9 -28 14 -28 11 0 -3 -10 -1 -21 6 -20 10 -21 9 -17 -15 7 -33 0 -33
-12 0 l-10 26 -37 -23 c-20 -13 -34 -18 -30 -12 4 6 0 16 -7 22 -10 8 -16 9
-21 1 -4 -7 -13 -7 -27 1 -19 10 -20 9 -16 -15 7 -33 0 -33 -12 0 l-10 26 -37
-23 c-20 -13 -34 -18 -30 -12 4 6 0 16 -7 22 -9 8 -16 8 -20 2 -4 -7 -15 -7
-31 -1 -14 5 -27 5 -30 1 -3 -5 -15 -7 -27 -3 -16 4 -19 2 -14 -9 6 -10 4 -10
-6 1 -14 16 -38 24 -38 14 0 -4 8 -13 18 -21 15 -13 14 -13 -8 0 -14 8 -37 13
-53 11 -15 -1 -27 1 -27 6 0 5 -7 7 -16 3 -15 -6 -15 -8 2 -20 10 -7 13 -13 6
-13 -6 0 -18 10 -26 22 -9 12 -16 17 -16 11 0 -12 -24 -12 -36 0 -4 3 -16 1
-27 -4 -11 -6 -22 -7 -26 -3 -7 11 -31 16 -31 8 0 -4 8 -13 18 -21 15 -13 14
-13 -8 0 -14 8 -37 13 -53 11 -15 -1 -27 1 -27 6 0 5 -7 7 -16 3 -15 -6 -15
-8 2 -20 10 -7 13 -13 6 -13 -6 0 -18 10 -26 22 -9 12 -16 17 -16 11 0 -12
-24 -12 -36 0 -4 3 -16 1 -27 -4 -11 -6 -22 -7 -26 -3 -7 11 -31 16 -31 8 0
-4 8 -13 18 -21 11 -10 8 -10 -10 1 -16 9 -28 14 -28 11 0 -3 -10 -1 -21 6
-20 10 -21 9 -17 -15 7 -33 0 -33 -12 0 l-10 26 -37 -23 c-20 -13 -34 -18 -30
-12 4 6 0 16 -7 22 -10 8 -16 9 -21 1 -4 -7 -13 -7 -27 1 -19 10 -20 9 -16
-15 7 -33 0 -33 -12 0 l-10 26 -37 -23 c-20 -13 -34 -18 -30 -12 4 6 0 16 -7
22 -9 8 -16 8 -20 2 -4 -7 -15 -7 -31 -1 -14 5 -27 5 -30 1 -3 -5 -15 -7 -27
-3 -16 4 -19 2 -14 -9 6 -10 4 -10 -6 1 -14 16 -38 24 -38 14 0 -4 8 -13 18
-21 15 -13 14 -13 -8 0 -14 8 -37 13 -53 11 -15 -1 -27 1 -27 6 0 5 -7 7 -16
3 -15 -6 -15 -8 2 -20 10 -7 13 -13 6 -13 -6 0 -18 10 -26 22 -9 12 -16 17
-16 11 0 -12 -24 -12 -36 0 -4 3 -16 1 -27 -4 -11 -6 -22 -7 -26 -3 -7 11 -31
16 -31 8 0 -4 8 -13 18 -21 15 -13 14 -13 -8 0 -14 8 -37 13 -53 11 -15 -1
-27 1 -27 6 0 5 -7 7 -16 3 -15 -6 -15 -8 2 -20 10 -7 13 -13 6 -13 -6 0 -18
10 -26 22 -9 12 -16 17 -16 11 0 -12 -24 -12 -36 0 -4 3 -16 1 -27 -4 -11 -6
-22 -7 -26 -3 -7 11 -31 16 -31 8 0 -4 8 -13 18 -21 11 -10 8 -10 -10 1 -16 9
-28 14 -28 11 0 -3 -10 -1 -21 6 -20 10 -21 9 -17 -15 7 -33 0 -33 -12 0 l-10
26 -37 -23 c-20 -13 -34 -18 -30 -12 4 6 0 16 -7 22 -10 8 -16 9 -21 1 -4 -7
-13 -7 -27 1 -19 10 -20 9 -16 -15 7 -33 0 -33 -12 0 l-10 26 -37 -23 c-20
-13 -34 -18 -30 -12 4 6 0 16 -7 22 -9 8 -16 8 -20 2 -4 -7 -15 -7 -31 -1 -14
5 -27 5 -30 1 -3 -5 -15 -7 -27 -3 -16 4 -19 2 -14 -9 6 -10 4 -10 -6 1 -14
16 -38 24 -38 14 0 -4 8 -13 18 -21 15 -13 14 -13 -8 0 -14 8 -37 13 -53 11
-15 -1 -27 1 -27 6 0 5 -7 7 -16 3 -15 -6 -15 -8 2 -20 10 -7 13 -13 6 -13 -6
0 -18 10 -26 22 -9 12 -16 17 -16 11 0 -12 -24 -12 -36 0 -4 3 -16 1 -27 -4
-11 -6 -22 -7 -26 -3 -7 11 -31 16 -31 8 0 -4 8 -13 18 -21 15 -13 14 -13 -8
0 -14 8 -37 13 -53 11 -15 -1 -27 1 -27 6 0 5 -7 7 -16 3 -15 -6 -15 -8 2 -20
10 -7 13 -13 6 -13 -6 0 -18 10 -26 22 -9 12 -16 17 -16 11 0 -12 -24 -12 -36
0 -4 3 -16 1 -27 -4 -11 -6 -22 -7 -26 -3 -7 11 -31 16 -31 8 0 -4 8 -13 18
-21 11 -10 8 -10 -10 1 -16 9 -28 14 -28 11 0 -3 -10 -1 -21 6 -20 10 -21 9
-17 -15 7 -33 0 -33 -12 0 l-10 26 -37 -23 c-20 -13 -34 -18 -30 -12 4 6 0 16
-7 22 -8 7 -17 8 -20 3 -5 -9 -66 -7 -93 3 -7 2 -13 0 -13 -5 0 -6 5 -10 12
-10 6 0 8 -3 5 -6 -4 -4 -14 -1 -23 7 -16 13 -17 12 -12 -9 4 -12 2 -20 -3
-16 -5 3 -9 14 -9 25 0 19 -11 25 -24 12 -10 -10 -48 -15 -42 -5 6 9 -31 10
-46 1z m22 -13 c0 -2 -7 -9 -15 -16 -13 -11 -14 -10 -9 4 5 14 24 23 24 12z
m75 -6 c-3 -5 -12 -10 -18 -10 -7 0 -6 4 3 10 19 12 23 12 15 0z m399 2 c3 -5
-1 -9 -9 -9 -8 0 -12 4 -9 9 3 4 7 8 9 8 2 0 6 -4 9 -8z m240 0 c3 -5 -1 -9
-9 -9 -8 0 -12 4 -9 9 3 4 7 8 9 8 2 0 6 -4 9 -8z m276 -2 c0 -5 -2 -10 -4
-10 -3 0 -8 5 -11 10 -3 6 -1 10 4 10 6 0 11 -4 11 -10z m444 2 c3 -5 -1 -9
-9 -9 -8 0 -12 4 -9 9 3 4 7 8 9 8 2 0 6 -4 9 -8z m240 0 c3 -5 -1 -9 -9 -9
-8 0 -12 4 -9 9 3 4 7 8 9 8 2 0 6 -4 9 -8z m276 -2 c0 -5 -2 -10 -4 -10 -3 0
-8 5 -11 10 -3 6 -1 10 4 10 6 0 11 -4 11 -10z m444 2 c3 -5 -1 -9 -9 -9 -8 0
-12 4 -9 9 3 4 7 8 9 8 2 0 6 -4 9 -8z m240 0 c3 -5 -1 -9 -9 -9 -8 0 -12 4
-9 9 3 4 7 8 9 8 2 0 6 -4 9 -8z m276 -2 c0 -5 -2 -10 -4 -10 -3 0 -8 5 -11
10 -3 6 -1 10 4 10 6 0 11 -4 11 -10z m444 2 c3 -5 -1 -9 -9 -9 -8 0 -12 4 -9
9 3 4 7 8 9 8 2 0 6 -4 9 -8z m240 0 c3 -5 -1 -9 -9 -9 -8 0 -12 4 -9 9 3 4 7
8 9 8 2 0 6 -4 9 -8z m290 0 c3 -5 -1 -9 -9 -9 -8 0 -12 4 -9 9 3 4 7 8 9 8 2
0 6 -4 9 -8z m66 -536 c0 -2 -7 -7 -16 -10 -8 -3 -12 -2 -9 4 6 10 25 14 25 6z
m0 -240 c0 -2 -7 -7 -16 -10 -8 -3 -12 -2 -9 4 6 10 25 14 25 6z m-3747 -379
c4 3 7 1 7 -5 0 -6 -8 -10 -18 -9 -10 0 -19 7 -19 14 0 9 4 10 12 3 7 -5 15
-7 18 -3z m363 -12 c-6 -18 -26 -11 -26 8 0 7 4 6 10 -3 8 -13 10 -12 10 4 0
11 3 17 6 13 4 -3 4 -13 0 -22z m320 0 c-6 -18 -26 -11 -26 8 0 7 4 6 10 -3 8
-13 10 -12 10 4 0 11 3 17 6 13 4 -3 4 -13 0 -22z m1888 9 c3 -8 2 -12 -4 -9
-6 3 -10 10 -10 16 0 14 7 11 14 -7z m129 1 c-3 -9 -8 -14 -10 -11 -3 3 -2 9
2 15 9 16 15 13 8 -4z m345 -10 c-3 -3 -9 2 -12 12 -6 14 -5 15 5 6 7 -7 10
-15 7 -18z m435 10 c-3 -9 -8 -14 -10 -11 -3 3 -2 9 2 15 9 16 15 13 8 -4z
m-3673 -1 c0 -8 -19 -13 -24 -6 -3 5 1 9 9 9 8 0 15 -2 15 -3z m1000 -4 c0 -5
-2 -10 -4 -10 -3 0 -8 5 -11 10 -3 6 -1 10 4 10 6 0 11 -4 11 -10z m170 6 c0
-2 -7 -7 -16 -10 -8 -3 -12 -2 -9 4 6 10 25 14 25 6z m2284 -5 c-9 -9 -34 -9
-34 -1 0 5 9 8 20 7 10 -1 17 -3 14 -6z m-2197 -497 c-3 -3 -12 -4 -19 -1 -8
3 -5 6 6 6 11 1 17 -2 13 -5z m0 -40 c-3 -3 -12 -4 -19 -1 -8 3 -5 6 6 6 11 1
17 -2 13 -5z m1400 -169 c0 -8 -4 -12 -9 -9 -5 3 -6 10 -3 15 9 13 12 11 12
-6z m-1400 -31 c-3 -3 -12 -4 -19 -1 -8 3 -5 6 6 6 11 1 17 -2 13 -5z m1399
-9 c-3 -23 -12 -26 -13 -5 -1 11 2 20 7 20 4 0 7 -7 6 -15z m-1399 -31 c-3 -3
-12 -4 -19 -1 -8 3 -5 6 6 6 11 1 17 -2 13 -5z m-3 -26 c-3 -4 -9 -8 -15 -8
-5 0 -9 4 -9 8 0 5 7 9 15 9 8 0 12 -4 9 -9z m6 -144 c0 -8 -19 -13 -24 -6 -3
5 1 9 9 9 8 0 15 -2 15 -3z m-3 -30 c-3 -3 -12 -4 -19 -1 -8 3 -5 6 6 6 11 1
17 -2 13 -5z m0 -40 c-3 -3 -12 -4 -19 -1 -8 3 -5 6 6 6 11 1 17 -2 13 -5z
m1400 -9 c0 -8 -4 -12 -9 -9 -5 3 -6 10 -3 15 9 13 12 11 12 -6z m-1 -40 c-3
-23 -12 -26 -13 -5 -1 11 2 20 7 20 4 0 7 -7 6 -15z m-1399 -151 c-3 -3 -12
-4 -19 -1 -8 3 -5 6 6 6 11 1 17 -2 13 -5z m0 -40 c-3 -3 -12 -4 -19 -1 -8 3
-5 6 6 6 11 1 17 -2 13 -5z m-3 -26 c-3 -4 -9 -8 -15 -8 -5 0 -9 4 -9 8 0 5 7
9 15 9 8 0 12 -4 9 -9z m1403 -63 c0 -8 -4 -12 -9 -9 -5 3 -6 10 -3 15 9 13
12 11 12 -6z m-1 -40 c-3 -23 -12 -26 -13 -5 -1 11 2 20 7 20 4 0 7 -7 6 -15z
m-1396 -41 c0 -8 -19 -13 -24 -6 -3 5 1 9 9 9 8 0 15 -2 15 -3z m-3 -30 c-3
-3 -12 -4 -19 -1 -8 3 -5 6 6 6 11 1 17 -2 13 -5z m0 -40 c-3 -3 -12 -4 -19
-1 -8 3 -5 6 6 6 11 1 17 -2 13 -5z m1400 -169 c0 -8 -4 -12 -9 -9 -5 3 -6 10
-3 15 9 13 12 11 12 -6z m-1400 -31 c-3 -3 -12 -4 -19 -1 -8 3 -5 6 6 6 11 1
17 -2 13 -5z m1399 -9 c-3 -23 -12 -26 -13 -5 -1 11 2 20 7 20 4 0 7 -7 6 -15z
m-1399 -31 c-3 -3 -12 -4 -19 -1 -8 3 -5 6 6 6 11 1 17 -2 13 -5z m3 -25 c0
-4 -6 -9 -13 -12 -8 -3 -14 0 -14 7 0 7 6 13 14 13 7 0 13 -4 13 -8z m1407
-65 c-3 -3 -12 -4 -19 -1 -8 3 -5 6 6 6 11 1 17 -2 13 -5z m-1407 -720 c0 -8
-19 -13 -24 -6 -3 5 1 9 9 9 8 0 15 -2 15 -3z m-3 -30 c-3 -3 -12 -4 -19 -1
-8 3 -5 6 6 6 11 1 17 -2 13 -5z m0 -40 c-3 -3 -12 -4 -19 -1 -8 3 -5 6 6 6
11 1 17 -2 13 -5z m0 -200 c-3 -3 -12 -4 -19 -1 -8 3 -5 6 6 6 11 1 17 -2 13
-5z m0 -40 c-3 -3 -12 -4 -19 -1 -8 3 -5 6 6 6 11 1 17 -2 13 -5z m-3 -26 c-3
-4 -9 -8 -15 -8 -5 0 -9 4 -9 8 0 5 7 9 15 9 8 0 12 -4 9 -9z m-1 -155 c-3 -7
-8 -13 -12 -13 -4 0 -8 6 -8 13 0 8 6 14 13 14 7 0 10 -6 7 -14z m7 -149 c0
-8 -19 -13 -24 -6 -3 5 1 9 9 9 8 0 15 -2 15 -3z m-3 -39 c0 -6 -6 -12 -12
-12 -6 0 -12 6 -12 12 0 6 6 12 12 12 6 0 12 -6 12 -12z m1268 -175 c-3 -5
-12 -10 -18 -10 -7 0 -6 4 3 10 19 12 23 12 15 0z"/>
<path d="M860 4860 c0 -5 5 -10 11 -10 5 0 7 5 4 10 -3 6 -8 10 -11 10 -2 0
-4 -4 -4 -10z"/>
<path d="M1660 4860 c0 -5 5 -10 11 -10 5 0 7 5 4 10 -3 6 -8 10 -11 10 -2 0
-4 -4 -4 -10z"/>
<path d="M1820 4860 c0 -5 5 -10 11 -10 5 0 7 5 4 10 -3 6 -8 10 -11 10 -2 0
-4 -4 -4 -10z"/>
<path d="M2620 4860 c0 -5 5 -10 11 -10 5 0 7 5 4 10 -3 6 -8 10 -11 10 -2 0
-4 -4 -4 -10z"/>
<path d="M2780 4860 c0 -5 5 -10 11 -10 5 0 7 5 4 10 -3 6 -8 10 -11 10 -2 0
-4 -4 -4 -10z"/>
<path d="M3580 4860 c0 -5 5 -10 11 -10 5 0 7 5 4 10 -3 6 -8 10 -11 10 -2 0
-4 -4 -4 -10z"/>
<path d="M3740 4860 c0 -5 5 -10 11 -10 5 0 7 5 4 10 -3 6 -8 10 -11 10 -2 0
-4 -4 -4 -10z"/>
<path d="M1803 3665 c0 -8 4 -12 9 -9 5 3 6 10 3 15 -9 13 -12 11 -12 -6z"/>
<path d="M3558 3661 c4 -11 7 -12 10 -2 3 9 10 7 25 -6 15 -12 18 -13 9 -2 -6
9 -10 18 -7 20 2 3 -6 5 -19 5 -17 0 -22 -4 -18 -15z"/>
<path d="M3617 3667 c3 -4 8 -6 11 -3 3 3 11 1 19 -6 7 -6 16 -8 20 -4 3 3 1
6 -6 6 -7 0 -10 4 -7 8 2 4 -6 8 -19 8 -13 0 -21 -4 -18 -9z"/>
<path d="M1673 3645 c0 -8 4 -12 9 -9 5 3 6 10 3 15 -9 13 -12 11 -12 -6z"/>
<path d="M1835 3640 c-3 -5 -3 -10 2 -10 4 0 1 -5 -7 -11 -12 -8 -12 -10 -1
-7 8 2 15 12 17 21 3 19 -2 22 -11 7z"/>
<path d="M3279 3533 c-13 -16 -12 -17 4 -4 16 13 21 21 13 21 -2 0 -10 -8 -17
-17z"/>
<path d="M1820 3486 c0 -2 8 -10 18 -17 15 -13 16 -12 3 4 -13 16 -21 21 -21
13z"/>
<path d="M1827 3419 c7 -7 15 -10 18 -7 3 3 -2 9 -12 12 -14 6 -15 5 -6 -5z"/>
<path d="M1820 3326 c0 -2 8 -10 18 -17 15 -13 16 -12 3 4 -13 16 -21 21 -21
13z"/>
<path d="M1827 3259 c7 -7 15 -10 18 -7 3 3 -2 9 -12 12 -14 6 -15 5 -6 -5z"/>
<path d="M3275 3180 c3 -5 8 -10 11 -10 2 0 4 5 4 10 0 6 -5 10 -11 10 -5 0
-7 -4 -4 -10z"/>
<path d="M3273 3147 c0 -8 6 -14 14 -14 9 0 10 4 2 14 -6 7 -12 13 -14 13 -1
0 -2 -6 -2 -13z"/>
<path d="M1827 3079 c7 -7 15 -10 18 -7 3 3 -2 9 -12 12 -14 6 -15 5 -6 -5z"/>
<path d="M1826 3018 c3 -5 10 -6 15 -3 13 9 11 12 -6 12 -8 0 -12 -4 -9 -9z"/>
<path d="M3275 2860 c3 -5 8 -10 11 -10 2 0 4 5 4 10 0 6 -5 10 -11 10 -5 0
-7 -4 -4 -10z"/>
<path d="M3273 2827 c0 -8 6 -14 14 -14 9 0 10 4 2 14 -6 7 -12 13 -14 13 -1
0 -2 -6 -2 -13z"/>
<path d="M1827 2819 c7 -7 15 -10 18 -7 3 3 -2 9 -12 12 -14 6 -15 5 -6 -5z"/>
<path d="M1827 2599 c7 -7 15 -10 18 -7 3 3 -2 9 -12 12 -14 6 -15 5 -6 -5z"/>
<path d="M1826 2538 c3 -5 10 -6 15 -3 13 9 11 12 -6 12 -8 0 -12 -4 -9 -9z"/>
<path d="M3275 2540 c3 -5 8 -10 11 -10 2 0 4 5 4 10 0 6 -5 10 -11 10 -5 0
-7 -4 -4 -10z"/>
<path d="M3273 2507 c0 -8 6 -14 14 -14 9 0 10 4 2 14 -6 7 -12 13 -14 13 -1
0 -2 -6 -2 -13z"/>
<path d="M1827 2339 c7 -7 15 -10 18 -7 3 3 -2 9 -12 12 -14 6 -15 5 -6 -5z"/>
<path d="M3275 2220 c3 -5 8 -10 11 -10 2 0 4 5 4 10 0 6 -5 10 -11 10 -5 0
-7 -4 -4 -10z"/>
<path d="M3273 2187 c0 -8 6 -14 14 -14 9 0 10 4 2 14 -6 7 -12 13 -14 13 -1
0 -2 -6 -2 -13z"/>
<path d="M1827 2119 c7 -7 15 -10 18 -7 3 3 -2 9 -12 12 -14 6 -15 5 -6 -5z"/>
<path d="M1826 2058 c3 -5 10 -6 15 -3 13 9 11 12 -6 12 -8 0 -12 -4 -9 -9z"/>
<path d="M1820 1886 c0 -2 8 -10 18 -17 15 -13 16 -12 3 4 -13 16 -21 21 -21
13z"/>
<path d="M1827 1819 c7 -7 15 -10 18 -7 3 3 -2 9 -12 12 -14 6 -15 5 -6 -5z"/>
<path d="M1820 1726 c0 -2 8 -10 18 -17 15 -13 16 -12 3 4 -13 16 -21 21 -21
13z"/>
<path d="M1827 1659 c7 -7 15 -10 18 -7 3 3 -2 9 -12 12 -14 6 -15 5 -6 -5z"/>
<path d="M1820 1566 c0 -2 8 -10 18 -17 15 -13 16 -12 3 4 -13 16 -21 21 -21
13z"/>
<path d="M1827 1499 c7 -7 15 -10 18 -7 3 3 -2 9 -12 12 -14 6 -15 5 -6 -5z"/>
<path d="M1820 1406 c0 -2 8 -10 18 -17 15 -13 16 -12 3 4 -13 16 -21 21 -21
13z"/>
<path d="M1827 1339 c7 -7 15 -10 18 -7 3 3 -2 9 -12 12 -14 6 -15 5 -6 -5z"/>
<path d="M1827 1219 c7 -7 15 -10 18 -7 3 3 -2 9 -12 12 -14 6 -15 5 -6 -5z"/>
<path d="M1827 999 c7 -7 15 -10 18 -7 3 3 -2 9 -12 12 -14 6 -15 5 -6 -5z"/>
<path d="M1826 938 c3 -5 10 -6 15 -3 13 9 11 12 -6 12 -8 0 -12 -4 -9 -9z"/>
<path d="M1827 739 c7 -7 15 -10 18 -7 3 3 -2 9 -12 12 -14 6 -15 5 -6 -5z"/>
<path d="M3275 620 c3 -5 8 -10 11 -10 2 0 4 5 4 10 0 6 -5 10 -11 10 -5 0 -7
-4 -4 -10z"/>
<path d="M3273 587 c0 -8 6 -14 14 -14 9 0 10 4 2 14 -6 7 -12 13 -14 13 -1 0
-2 -6 -2 -13z"/>
<path d="M1827 579 c7 -7 15 -10 18 -7 3 3 -2 9 -12 12 -14 6 -15 5 -6 -5z"/>
<path d="M1840 360 c-9 -6 -10 -10 -3 -10 6 0 15 5 18 10 8 12 4 12 -15 0z"/>
<path d="M3270 359 c0 -5 5 -7 10 -4 6 3 10 8 10 11 0 2 -4 4 -10 4 -5 0 -10
-5 -10 -11z"/>
</g>
</svg>
